<svg xmlns="http://www.w3.org/2000/svg" width="128" height="128" viewBox="0 0 16 16" shape-rendering="crispEdges">
  <!-- background -->
  <rect width="16" height="16" fill="#1e1e1e"/>
  <!-- hair (gray, colonial side-wave) -->
  <g fill="#c9c9c9">
    <rect x="4"  y="1" width="8" height="1"/>
    <rect x="3"  y="2" width="10" height="1"/>
    <rect x="2"  y="3" width="2" height="1"/>
    <rect x="12" y="3" width="2" height="1"/>
    <rect x="2"  y="4" width="1" height="2"/>
    <rect x="13" y="4" width="1" height="2"/>
    <rect x="1"  y="6" width="2" height="3"/>
    <rect x="13" y="6" width="2" height="3"/>
    <rect x="2"  y="9" width="1" height="1"/>
    <rect x="13" y="9" width="1" height="1"/>
  </g>
  <!-- hair highlight -->
  <g fill="#e8e8e8">
    <rect x="5" y="2" width="2" height="1"/>
    <rect x="9" y="2" width="2" height="1"/>
  </g>
  <!-- face skin -->
  <g fill="#e0b080">
    <rect x="4"  y="3" width="8" height="1"/>
    <rect x="3"  y="4" width="10" height="1"/>
    <rect x="3"  y="5" width="10" height="1"/>
    <rect x="3"  y="6" width="10" height="1"/>
    <rect x="3"  y="7" width="10" height="1"/>
    <rect x="4"  y="8" width="8" height="1"/>
    <rect x="4"  y="9" width="8" height="1"/>
    <rect x="5"  y="10" width="6" height="1"/>
  </g>
  <!-- cheek blush -->
  <g fill="#d98f6a">
    <rect x="3"  y="7" width="1" height="1"/>
    <rect x="12" y="7" width="1" height="1"/>
  </g>
  <!-- glasses frames -->
  <g fill="#2a2018">
    <rect x="4" y="5" width="3" height="1"/>
    <rect x="4" y="7" width="3" height="1"/>
    <rect x="4" y="6" width="1" height="1"/>
    <rect x="6" y="6" width="1" height="1"/>
    <rect x="9"  y="5" width="3" height="1"/>
    <rect x="9"  y="7" width="3" height="1"/>
    <rect x="9"  y="6" width="1" height="1"/>
    <rect x="11" y="6" width="1" height="1"/>
    <rect x="7" y="6" width="2" height="1"/>
  </g>
  <!-- eyes -->
  <g fill="#1a1a1a">
    <rect x="5"  y="6" width="1" height="1"/>
    <rect x="10" y="6" width="1" height="1"/>
  </g>
  <!-- mouth -->
  <g fill="#8a3a20">
    <rect x="7" y="9" width="2" height="1"/>
  </g>
  <!-- white shirt / cravat -->
  <g fill="#f0e8d0">
    <rect x="5"  y="11" width="6" height="1"/>
    <rect x="6"  y="12" width="4" height="1"/>
    <rect x="7"  y="13" width="2" height="2"/>
  </g>
  <!-- coat (brown) -->
  <g fill="#5a3820">
    <rect x="1" y="11" width="4" height="5"/>
    <rect x="11" y="11" width="4" height="5"/>
    <rect x="5"  y="12" width="1" height="4"/>
    <rect x="10" y="12" width="1" height="4"/>
    <rect x="6"  y="13" width="1" height="3"/>
    <rect x="9"  y="13" width="1" height="3"/>
    <rect x="7"  y="15" width="2" height="1"/>
  </g>
  <!-- coat buttons (gold) -->
  <g fill="#caa45a">
    <rect x="5" y="14" width="1" height="1"/>
    <rect x="10" y="14" width="1" height="1"/>
  </g>
</svg>
