<svg xmlns="http://www.w3.org/2000/svg" viewBox="0 0 1024 1024">
  <g fill="currentColor">
    <path d="M439.4 170.7c-91.8 0-166.4 74.6-166.4 166.4v352.8c0 91.8 74.6 166.4 166.4 166.4h413.9c91.8 0 166.4-74.6 166.4-166.4V337.1c0-91.8-74.6-166.4-166.4-166.4H439.4zm413.9 83.2c46.3 0 83.2 36.9 83.2 83.2v352.8c0 46.3-36.9 83.2-83.2 83.2H439.4c-46.3 0-83.2-36.9-83.2-83.2V337.1c0-46.3 36.9-83.2 83.2-83.2h413.9z"/>
    <rect x="34.7" y="316.3" width="238.2" height="41.6" rx="20.8"/>
    <rect x="34.7" y="491.2" width="238.2" height="41.6" rx="20.8"/>
    <rect x="34.7" y="666.1" width="238.2" height="41.6" rx="20.8"/>
  </g>
</svg>
